PathFileType	4	(X/Y/Z)	C:\Users\°ÂÌØÂü\Desktop\20210112\bx_n_5_1801-Unnamed.trc
DataRate	CameraRate	NumFrames	NumMarkers	Units	OrigDataRate	OrigDataStartFrame	OrigNumFrames
50.00	50.00	       6	0	mm	50.00	58	       460
Frame#	Time	
		

58	1.140	-824.40009	303.54666	649.44476	-721.34338	-15.12415	722.58252	-695.12518	304.77258	603.97223	-527.21240	178.17897	540.62360	-556.80450	49.54053	546.02008	-603.15674	285.92987	550.59998	-568.94464	286.81256	519.52435	-535.21655	-12.38506	473.72299	-703.30103	70.28199	211.41566	-626.56702	284.54379	463.83121				-649.39703	-68.85328	160.72702	-697.57062	153.97943	208.97147	-755.32214	227.17149	206.96725	-608.21960	-76.67291	156.25446	-882.74017	296.30359	144.87753	-672.06360	52.77176	157.40437	-597.33228	24.13364	169.19003	-550.17566	-32.72290	165.97144	-672.61426	172.07179	153.98866	-590.46216	218.12405	173.21880	-660.91113	297.72339	158.06049	-624.95514	306.42743	158.13831	-554.05823	256.33282	162.85268	-528.31134	304.65448	146.49179	-274.66071	127.85397	1225.56128	-480.87589	285.57172	986.27075	-516.52466	240.83380	478.92374	-517.95526	-72.71199	143.14726	-788.18219	44.63848	179.28741	-789.40533	172.56862	190.03131	-480.12915	-54.48704	1012.65845	-1016.05548	115.59260	790.07416	-649.27295	-60.67649	463.13507	-747.80695	-16.34249	208.28981	-875.87671	-78.61211	140.98958	-599.47180	-61.75470	558.45288							-827.07123	-80.14822	682.07495				-802.99054	239.36885	743.14874	-695.06274	244.76303	708.79498				-726.98682	-80.09082	626.02765	
59	1.160	-823.96838	304.73465	645.16211	-722.80298	-12.95967	719.86420	-694.43414	305.09122	601.42358	-526.56860	178.09084	539.59613	-556.04651	51.19220	545.40546	-601.65704	285.88113	549.31165	-567.25323	286.22211	517.84094	-533.75690	-10.43038	473.62109	-703.31702	70.85174	210.66557	-625.24249	284.57886	463.66818				-649.19568	-68.55128	160.91229	-697.38202	153.46962	208.67062	-754.87958	227.56526	206.86609	-608.50970	-76.69462	157.67233	-882.65753	296.12018	144.66078	-672.33252	53.13286	156.89929	-597.29193	24.48113	168.80876	-549.77069	-32.65517	166.00394	-672.85858	171.72937	153.73277	-589.87512	218.28249	173.40683	-660.91113	297.72339	158.06049	-624.83264	306.41409	158.25281	-554.05823	256.33282	162.85268	-528.54395	304.45807	146.57298	-273.73157	127.99102	1216.49109	-479.44772	285.99503	977.29712	-514.98627	239.38240	478.47717	-517.93970	-72.68973	143.16273	-787.96173	44.83113	179.18875	-789.45020	172.28043	190.00441	-479.12503	-53.53861	1003.84949	-1017.09839	117.10215	783.77075	-648.22211	-58.41703	460.67117	-747.53394	-16.28891	208.51369	-875.67786	-78.65668	141.12025	-597.97766	-60.06143	556.88672							-827.32489	-79.11676	678.32678				-803.24146	240.80894	737.65204	-696.36395	245.03223	705.58392				-726.67847	-78.59995	623.93396	
60	1.180	-823.63458	305.20386	640.61945	-723.97839	-10.81004	716.74286	-693.61371	305.59274	598.73541	-525.29291	178.08179	538.85779	-555.51978	52.64001	544.57355	-600.35443	285.91028	547.62756	-566.40948	287.49213	517.44354	-532.30646	-8.76024	472.94937	-703.68591	72.56097	211.00154	-624.06787	284.90573	462.76987	-581.51764	-58.37109	522.36371	-649.29187	-68.30627	161.17647	-697.23956	153.29649	208.72418	-756.07532	226.33061	206.51523	-608.59540	-76.62431	158.18341	-882.64709	296.15436	144.74632	-671.60596	53.00370	156.21783	-597.02124	24.81983	168.45714	-549.70660	-32.25998	166.05472	-672.90942	171.57770	154.16553	-589.70764	218.28703	173.46140	-660.84155	297.57443	158.01068	-624.85577	306.33411	158.15125	-553.86096	256.40253	162.82603	-528.39575	304.67569	146.71341	-272.93088	127.95873	1208.33228	-478.38489	286.20026	969.18146	-513.92419	239.36224	478.17773	-517.92499	-72.51338	142.89661	-787.78979	45.05979	178.92619	-788.93561	172.13335	189.78336	-477.59412	-53.46033	995.63287	-1017.99011	117.84690	777.67657	-646.21527	-58.93744	462.60635	-747.60687	-16.06702	208.80653	-875.85876	-78.61780	140.99062	-597.58917	-58.58975	556.77881							-827.88849	-78.09806	674.54346				-803.40747	241.79178	732.19440	-696.71344	245.54688	703.30151				-726.26282	-77.38223	621.32782	
61	1.200	-823.75024	305.82773	636.76941	-725.26416	-9.29649	714.54816	-692.98309	306.40689	596.31543	-524.58533	178.43059	537.98505	-555.17120	54.19706	543.86377	-598.96625	286.40948	546.19934	-564.37024	286.11935	515.53668	-531.65796	-7.54200	472.55267	-703.89935	72.70068	210.84938	-622.08539	286.99640	463.55664	-580.24097	-56.41837	521.59442	-649.30371	-68.64904	162.02678	-696.91620	153.37546	208.31900	-755.91229	226.36983	206.58391	-608.43671	-76.27175	158.58517	-882.70496	296.11963	144.68596	-671.67853	53.40327	156.38861	-596.89996	24.98710	168.06223	-549.72131	-32.22240	165.96532	-672.82159	171.51790	153.88997	-589.81122	218.20270	173.47618	-660.97961	297.48264	157.89743	-624.79926	306.27310	158.15100	-554.05823	256.33282	162.85268	-528.51904	304.58646	146.58948	-272.37347	128.08876	1200.15369	-477.47293	286.30127	961.23254	-512.62915	239.74138	477.53824	-517.95697	-72.80094	143.06155	-788.27173	45.52316	179.83092	-788.96198	172.09282	189.97733	-476.58658	-52.83823	987.80481	-1018.74475	119.45065	772.22986	-645.72406	-57.61043	462.46198	-747.12891	-16.03288	209.15242	-875.80023	-78.62018	141.04199	-596.44293	-56.90849	555.88348							-828.53998	-77.23983	671.39465				-803.55554	242.07164	727.18909	-697.43311	245.67862	700.40002				-726.31714	-76.06925	619.22101	
62	1.220	-823.25159	307.28458	633.31543	-726.25024	-7.95873	712.47211	-692.32288	306.79395	593.84760	-524.01654	178.31236	537.82892	-554.34930	55.45633	543.87170	-598.40710	287.02527	545.22357	-563.39569	286.97214	515.30731	-530.87921	-5.86626	472.68146	-703.89935	72.70068	210.84938	-621.47101	286.88739	462.38687	-579.58588	-55.87480	521.42120	-649.15222	-67.58967	161.54501	-696.84937	153.29675	208.36490	-755.81213	226.06378	206.57239	-608.21991	-75.95726	159.45473	-882.71722	296.30853	144.90550	-671.53937	53.51747	156.30986	-596.76862	25.17748	167.85863	-549.64667	-31.85854	165.64980	-672.87457	171.52408	153.80783	-589.79926	218.32928	173.44331	-660.99878	297.40887	157.99271	-624.83264	306.41409	158.25281	-553.81641	256.44470	162.85553	-528.17725	304.56635	146.65282	-271.86151	128.68774	1192.86243	-477.08972	286.08527	954.21149	-511.49927	239.96957	477.03671	-517.93970	-72.68973	143.16273	-787.84668	45.43576	178.98796	-788.84698	172.32614	190.44780	-475.68787	-52.23101	980.70575	-1019.90118	120.39260	767.00293	-644.80237	-56.57732	462.04376	-747.01245	-15.48491	209.56987	-875.85034	-78.68372	141.27127	-595.90784	-56.09557	555.50366							-829.39282	-76.40250	668.51123				-803.69965	242.82591	723.01349	-697.95282	245.64236	697.81122				-726.45599	-75.10824	617.58685	
63	1.240	-822.88446	308.02573	629.96295	-727.62561	-6.55091	710.30786	-692.17517	307.22510	591.93695	-522.80042	178.63029	537.31989	-553.87860	56.57365	543.93463	-597.22717	287.68469	543.77802	-562.39789	287.24353	514.56689	-529.94476	-4.97920	472.51624	-703.35205	72.31484	209.59750	-620.49335	287.07617	461.80331	-578.43213	-54.96515	521.08875	-648.88354	-67.98750	162.73309	-696.65479	153.19299	208.02943	-755.81213	226.06378	206.57239	-607.95978	-75.67596	159.75941	-882.68304	296.14349	144.69247	-671.65204	53.80711	155.90161	-596.70050	25.25945	167.90002	-549.65027	-31.87566	165.64474	-673.05304	171.23196	153.52855	-589.71570	218.22227	173.40172	-660.85571	297.43777	158.14865	-624.78711	306.25751	158.10168	-553.72003	256.39078	162.75098	-528.30267	304.43021	146.56764	-271.48288	128.81862	1186.29675	-476.68024	286.52722	947.64899	-510.88779	240.36852	476.18845	-518.10010	-72.22800	142.72786	-787.66205	46.01062	179.03772	-788.68152	172.24217	190.35316	-475.16049	-51.95082	974.32727	-1020.26733	121.45637	761.69476	-644.45996	-56.33796	462.36829	-746.67694	-15.08171	209.21739	-875.78961	-78.57214	141.09050	-594.93506	-55.38016	555.39294							-829.50372	-75.25175	665.55823				-804.08539	243.54915	719.03796	-698.48920	245.93228	695.60803				-726.28082	-74.65169	616.06189	
